<svg width="20" height="20" viewBox="0 0 20 20" fill="none" xmlns="http://www.w3.org/2000/svg">
<path d="M18.75 19.5C19.1642 19.5 19.5 19.1642 19.5 18.75C19.5 18.3358 19.1642 18 18.75 18V18.75V19.5ZM1.77513 17.7249L1.24478 18.2552L1.2448 18.2552L1.77513 17.7249ZM1.5 0.75C1.5 0.335786 1.16421 0 0.75 0C0.335786 0 0 0.335786 0 0.75H0.75H1.5ZM16.0928 7.47754C16.3106 7.12516 16.2014 6.663 15.849 6.44529C15.4966 6.22757 15.0345 6.33674 14.8168 6.68912L15.4548 7.08333L16.0928 7.47754ZM12.5811 11.7345L13.2191 12.1287L13.2191 12.1287L12.5811 11.7345ZM10.8249 13.2844L10.6949 14.0231L10.695 14.0231L10.8249 13.2844ZM8.4526 11.0945L8.82602 10.4441L8.82597 10.444L8.4526 11.0945ZM6.20771 11.3095C5.96445 11.6448 6.03903 12.1138 6.37429 12.357C6.70955 12.6003 7.17853 12.5257 7.42179 12.1905L6.81475 11.75L6.20771 11.3095ZM19.388 2.14421C19.6058 1.79182 19.4966 1.32967 19.1442 1.11195C18.7918 0.894241 18.3297 1.00341 18.112 1.35579L18.75 1.75L19.388 2.14421ZM16.2585 4.35579C16.0407 4.70818 16.1499 5.17033 16.5023 5.38805C16.8547 5.60576 17.3168 5.49659 17.5345 5.14421L16.8965 4.75L16.2585 4.35579ZM2.12885 17.3297C1.89671 17.6727 1.98662 18.139 2.32967 18.3711C2.67272 18.6033 3.13901 18.5134 3.37115 18.1703L2.75 17.75L2.12885 17.3297ZM5.89747 14.437C6.12961 14.094 6.0397 13.6277 5.69665 13.3956C5.3536 13.1634 4.88731 13.2533 4.65517 13.5964L5.27632 14.0167L5.89747 14.437ZM18.75 18.75V18H7.75V18.75V19.5H18.75V18.75ZM7.75 18.75V18C6.07888 18 4.90099 17.9984 4.00948 17.8785C3.13955 17.7616 2.65544 17.5445 2.30545 17.1946L1.77513 17.7249L1.2448 18.2552C1.91994 18.9304 2.77335 19.2259 3.80962 19.3652C4.8243 19.5016 6.12129 19.5 7.75 19.5V18.75ZM1.77513 17.7249L2.30548 17.1946C1.95547 16.8446 1.73841 16.3604 1.62145 15.4905C1.50159 14.599 1.5 13.4211 1.5 11.75H0.75H0C0 13.3787 -0.00159287 14.6757 0.134829 15.6904C0.274152 16.7266 0.569658 17.58 1.24478 18.2552L1.77513 17.7249ZM0.75 11.75H1.5V0.75H0.75H0V11.75H0.75ZM15.4548 7.08333L14.8168 6.68912L11.9431 11.3403L12.5811 11.7345L13.2191 12.1287L16.0928 7.47754L15.4548 7.08333ZM12.5811 11.7345L11.9431 11.3403C11.6921 11.7464 11.5287 12.0683 11.3026 12.3291C11.0982 12.5648 11.0068 12.5549 10.9548 12.5457L10.8249 13.2844L10.695 14.0231C11.505 14.1655 12.0823 13.7195 12.4358 13.3118C12.7676 12.9292 13.0513 12.4004 13.2191 12.1287L12.5811 11.7345ZM10.8249 13.2844L10.9549 12.5457C10.7711 12.5134 10.557 12.341 10.1789 11.8517C10.0212 11.6475 9.81825 11.3685 9.61796 11.1347C9.41189 10.8942 9.15253 10.6315 8.82602 10.4441L8.4526 11.0945L8.07918 11.7449C8.18847 11.8077 8.31682 11.9215 8.47887 12.1107C8.64668 12.3065 8.79226 12.5103 8.99191 12.7687C9.32868 13.2046 9.86494 13.877 10.6949 14.0231L10.8249 13.2844ZM8.4526 11.0945L8.82597 10.444C8.24651 10.1114 7.66645 10.1287 7.17035 10.3932C6.7414 10.6218 6.42579 11.009 6.20771 11.3095L6.81475 11.75L7.42179 12.1905C7.61867 11.9191 7.76711 11.7749 7.8759 11.7169C7.91704 11.6949 7.93635 11.6944 7.94433 11.6945C7.95252 11.6947 7.99433 11.6962 8.07923 11.745L8.4526 11.0945ZM18.75 1.75L18.112 1.35579L16.2585 4.35579L16.8965 4.75L17.5345 5.14421L19.388 2.14421L18.75 1.75ZM2.75 17.75L3.37115 18.1703L5.89747 14.437L5.27632 14.0167L4.65517 13.5964L2.12885 17.3297L2.75 17.75Z" fill="#F6F8FC"/>
</svg>
