<svg width="32" height="32" viewBox="0 0 32 32" fill="none" xmlns="http://www.w3.org/2000/svg">
<path d="M29.3333 11.8386C29.2441 9.7825 28.9941 8.44398 28.2937 7.38512C27.8908 6.77595 27.3904 6.24612 26.8149 5.81958C25.2596 4.66667 23.0653 4.66667 18.6771 4.66667H13.3241C8.93569 4.66667 6.74151 4.66667 5.18615 5.81958C4.61072 6.24612 4.11021 6.77595 3.70728 7.38512C3.007 8.44386 2.757 9.78221 2.66776 11.8379C2.65249 12.1894 2.95529 12.4583 3.28707 12.4583C5.13477 12.4583 6.63264 14.044 6.63264 16C6.63264 17.956 5.13477 19.5416 3.28707 19.5416C2.95529 19.5416 2.65249 19.8105 2.66776 20.1621C2.757 22.2179 3.007 23.5561 3.70728 24.6149C4.11021 25.224 4.61072 25.7539 5.18615 26.1804C6.74151 27.3333 8.93569 27.3333 13.3241 27.3333H18.6771C23.0653 27.3333 25.2596 27.3333 26.8149 26.1804C27.3904 25.7539 27.8908 25.224 28.2937 24.6149C28.9941 23.556 29.2441 22.2175 29.3333 20.1615V11.8386Z" stroke="#43D2CB" stroke-width="1.5" stroke-linejoin="round"/>
<path d="M17.3333 16H22.6667" stroke="#43D2CB" stroke-width="1.5" stroke-linecap="round" stroke-linejoin="round"/>
<path d="M12 21.3333H22.6667" stroke="#43D2CB" stroke-width="1.5" stroke-linecap="round" stroke-linejoin="round"/>
</svg>
