<svg width="32" height="32" viewBox="0 0 32 32" fill="none" xmlns="http://www.w3.org/2000/svg">
<path d="M28.9479 12.5161C29.1205 13.1933 29.2332 13.8953 29.2797 14.6161C29.3512 15.7239 29.3512 16.8711 29.2797 17.9789C28.9141 23.6399 24.4715 28.1491 18.8941 28.5201C16.9913 28.6467 15.0048 28.6464 13.1059 28.5201C12.4519 28.4765 11.7392 28.3204 11.1253 28.0673C10.4423 27.7859 10.1008 27.6451 9.92724 27.6664C9.75368 27.6879 9.50185 27.8736 8.99823 28.2453C8.11023 28.9007 6.99155 29.3713 5.33256 29.3309C4.49367 29.3105 4.07423 29.3003 3.88644 28.9799C3.69867 28.6595 3.93253 28.2159 4.40027 27.3288C5.04897 26.0985 5.46 24.6901 4.8372 23.5616C3.76456 21.9497 2.85345 20.0407 2.72031 17.9789C2.64877 16.8711 2.64877 15.7239 2.72031 14.6161C3.08587 8.95517 7.52851 4.44597 13.1059 4.07495C13.6208 4.04068 14.1423 4.01569 14.6667 4" stroke="#D2B843" stroke-width="1.5" stroke-linecap="round" stroke-linejoin="round"/>
<path d="M11.3333 20H20.6667M11.3333 13.3333H16" stroke="#D2B843" stroke-width="1.5" stroke-linecap="round" stroke-linejoin="round"/>
<path d="M18.6667 6H29.3333M18.6667 6C18.6667 5.06636 21.3257 3.32205 22 2.66667M18.6667 6C18.6667 6.93364 21.3257 8.67796 22 9.33334" stroke="#D2B843" stroke-width="1.4" stroke-linecap="round" stroke-linejoin="round"/>
</svg>
