<svg width="32" height="32" viewBox="0 0 32 32" fill="none" xmlns="http://www.w3.org/2000/svg">
<path d="M3.33334 16C3.33334 10.0289 3.33334 7.04331 5.18833 5.18831C7.04333 3.33333 10.0289 3.33333 16 3.33333C21.9711 3.33333 24.9567 3.33333 26.8117 5.18831C28.6667 7.04331 28.6667 10.0289 28.6667 16C28.6667 21.9711 28.6667 24.9567 26.8117 26.8117C24.9567 28.6667 21.9711 28.6667 16 28.6667C10.0289 28.6667 7.04333 28.6667 5.18833 26.8117C3.33334 24.9567 3.33334 21.9711 3.33334 16Z" stroke="#59BCDD" stroke-width="1.8" stroke-linejoin="round"/>
<path d="M16.0104 14.0109C14.9059 14.0109 14.0104 14.9064 14.0104 16.0109C14.0104 17.1155 14.9059 18.0109 16.0104 18.0109C17.1149 18.0109 18.0104 17.1155 18.0104 16.0109C18.0104 14.9064 17.1149 14.0109 16.0104 14.0109ZM16.0104 14.0109V9.33203M20.0196 20.0264L17.4215 17.4283" stroke="#59BCDD" stroke-width="1.8" stroke-linecap="round" stroke-linejoin="round"/>
</svg>
